<?xml version="1.0" encoding="iso-8859-1"?>
<!-- Generator: Adobe Illustrator 19.0.0, SVG Export Plug-In . SVG Version: 6.00 Build 0)  -->
<svg version="1.1" id="Layer_1" xmlns="http://www.w3.org/2000/svg" xmlns:xlink="http://www.w3.org/1999/xlink" x="0px" y="0px"
	 viewBox="0 0 512 512" style="enable-background:new 0 0 512 512;" xml:space="preserve">
<g>
	<path style="fill:#54CCFF;" d="M130.844,409.6c-28.233,0-51.2-22.967-51.2-51.2c0-9.411,7.656-17.067,17.067-17.067h68.267
		c9.411,0,17.067,7.656,17.067,17.067C182.044,386.633,159.077,409.6,130.844,409.6z"/>
	<path style="fill:#54CCFF;" d="M153.6,284.444V147.911c0-18.822,15.311-34.133,34.133-34.133h136.533
		c18.822,0,34.133,15.311,34.133,34.133v136.533H153.6z"/>
</g>
<path style="fill:#4BB8E6;" d="M324.266,113.778H256v170.667h102.4V147.911C358.4,129.089,343.089,113.778,324.266,113.778z"/>
<path style="fill:#F9BC35;" d="M256,284.444c-28.233,0-51.2-22.967-51.2-51.2s22.967-51.2,51.2-51.2s51.2,22.967,51.2,51.2
	S284.232,284.444,256,284.444z"/>
<path style="fill:#54CCFF;" d="M256,113.778c-28.233,0-51.2-22.967-51.2-51.2s22.967-51.2,51.2-51.2s51.2,22.967,51.2,51.2
	S284.232,113.778,256,113.778z"/>
<path style="fill:#F9BC35;" d="M170.666,483.555V352.711H35.48c-16.508,0-31.671-11.125-34.818-27.331
	c-4.234-21.791,12.423-40.936,33.471-40.936h442.386c16.508,0,31.671,11.125,34.818,27.331
	c4.234,21.791-12.423,40.936-33.471,40.936H341.333v130.844c0,9.425-7.641,17.067-17.067,17.067H187.733
	C178.308,500.622,170.666,492.981,170.666,483.555z"/>
<g>
	<path style="fill:#4BB8E6;" d="M381.155,409.6c-28.233,0-51.2-22.967-51.2-51.2c0-9.411,7.656-17.067,17.067-17.067h68.267
		c9.411,0,17.067,7.656,17.067,17.067C432.355,386.633,409.388,409.6,381.155,409.6z"/>
	<path style="fill:#4BB8E6;" d="M307.2,62.578c0-28.233-22.967-51.2-51.2-51.2v102.4C284.232,113.778,307.2,90.81,307.2,62.578z"/>
</g>
<g>
	<path style="fill:#F39E31;" d="M307.2,233.244c0-28.233-22.967-51.2-51.2-51.2v102.4C284.232,284.444,307.2,261.477,307.2,233.244z
		"/>
	<path style="fill:#F39E31;" d="M476.519,284.444H256v216.178h68.267c9.425,0,17.067-7.641,17.067-17.067V352.711h136.533
		c21.048,0,37.704-19.145,33.472-40.937C508.191,295.57,493.027,284.444,476.519,284.444z"/>
</g>
<g>
</g>
<g>
</g>
<g>
</g>
<g>
</g>
<g>
</g>
<g>
</g>
<g>
</g>
<g>
</g>
<g>
</g>
<g>
</g>
<g>
</g>
<g>
</g>
<g>
</g>
<g>
</g>
<g>
</g>
</svg>
